<svg width="44" height="44" viewBox="0 0 44 44" fill="none" xmlns="http://www.w3.org/2000/svg">
<path d="M21.0898 1.59973C22.2679 1.56569 23.5766 1.60672 24.3848 1.75793C25.2568 1.92116 25.7766 2.53426 26.0479 2.96692C26.3312 3.41896 26.5113 3.93403 26.6328 4.37708C26.7567 4.82909 26.8447 5.30364 26.9072 5.73743C27.6244 5.97129 28.32 6.2519 28.9902 6.57629C29.3098 6.33698 29.667 6.09044 30.0322 5.8761C30.4024 5.65882 30.8493 5.43413 31.3203 5.30286C31.7569 5.18117 32.478 5.06541 33.1934 5.422V5.42297C33.6276 5.63962 34.0914 5.98601 34.4971 6.32141C34.9259 6.67601 35.3814 7.09495 35.8154 7.52161C36.6559 8.34794 37.5328 9.32111 37.9834 10.0089C38.4651 10.7442 38.3883 11.5361 38.2666 12.0304C38.1398 12.5452 37.8973 13.029 37.665 13.421C37.4243 13.8274 37.1399 14.2224 36.8682 14.5714C37.152 15.1814 37.3997 15.8116 37.6094 16.4591C38.0089 16.525 38.4497 16.6137 38.876 16.7316C39.3133 16.8525 39.8141 17.0248 40.2578 17.2804C40.6603 17.5122 41.2936 17.971 41.5342 18.7843V18.7853C41.6716 19.2505 41.7335 19.8255 41.7646 20.3507C41.7975 20.9064 41.8025 21.5264 41.7861 22.1349C41.7544 23.3129 41.6393 24.6168 41.4434 25.4152V25.4161C41.227 26.2959 40.5642 26.7827 40.1113 27.0265C39.6344 27.2831 39.0982 27.4326 38.6396 27.5275C38.1723 27.6241 37.686 27.6828 37.2461 27.7189C37.1466 27.9685 37.0398 28.2146 36.9287 28.4581C37.1767 28.7815 37.4449 29.1543 37.6826 29.5411C37.9272 29.9393 38.1839 30.4214 38.3398 30.923C38.4795 31.3722 38.6432 32.1675 38.2441 32.9464C38.0229 33.3782 37.6707 33.8374 37.3311 34.2394C36.9718 34.6646 36.5476 35.1165 36.1162 35.546C35.3854 36.2736 34.5421 37.0271 33.8789 37.5011L33.6064 37.6866C32.8643 38.1614 32.0713 38.075 31.5781 37.9474C31.0641 37.8144 30.5825 37.5654 30.1924 37.3282C29.8003 37.0898 29.4185 36.8113 29.0801 36.5431C28.761 36.7011 28.4364 36.8494 28.1064 36.9874C28.0801 37.3869 28.0379 37.8289 27.9639 38.2599C27.8866 38.7097 27.7636 39.2279 27.5527 39.6974C27.3619 40.1222 26.9663 40.8046 26.1748 41.1251C25.7251 41.3071 25.1585 41.4249 24.6387 41.507C24.0888 41.5937 23.4725 41.6574 22.8652 41.7003C21.6895 41.7833 20.3802 41.7973 19.5664 41.6798C18.634 41.5451 18.0779 40.8889 17.7959 40.4513C17.4945 39.9834 17.2948 39.4425 17.1572 38.9777C17.0189 38.51 16.9157 38.0234 16.8408 37.588C16.2506 37.4113 15.6738 37.2031 15.1133 36.965L12.9688 36.0548L14.6006 34.3907L20.7803 28.09L21.2471 27.6144H21.9424C25.2049 27.6144 27.8494 24.9694 27.8496 21.7072C27.8496 18.4446 25.205 15.799 21.9424 15.799C18.8076 15.799 16.2427 18.2421 16.0479 21.3273L16.0107 21.9152L15.5996 22.3361L15.5254 22.4122L15.5225 22.4152L9.04395 29.0206L7.43066 30.6652L6.4668 28.5724C6.26703 28.1384 6.0875 27.6935 5.9248 27.2404C5.52763 27.1916 5.09397 27.1238 4.67578 27.0255C4.24642 26.9246 3.75438 26.775 3.3125 26.5411C2.90698 26.3265 2.28156 25.9021 2.00977 25.1251C1.8497 24.6671 1.75995 24.0955 1.70313 23.5724C1.64302 23.019 1.60821 22.4007 1.59473 21.7921C1.56862 20.6138 1.61874 19.3053 1.77539 18.4982L1.81348 18.3331C2.03126 17.5317 2.63251 17.059 3.04883 16.8116C3.51887 16.5323 4.05417 16.3568 4.51367 16.2404C4.98457 16.121 5.47544 16.0389 5.91699 15.9825C6.02817 15.6715 6.14853 15.3649 6.27734 15.0626C6.01732 14.7624 5.74029 14.4224 5.49316 14.0685C5.23316 13.6961 4.95727 13.2431 4.77832 12.7628C4.6161 12.3273 4.42088 11.5695 4.75488 10.7892L4.83203 10.6202C5.02545 10.2231 5.30472 9.80717 5.57715 9.43567C5.9063 8.98683 6.29744 8.50706 6.69824 8.04895C7.47437 7.16185 8.39525 6.23015 9.05566 5.74036L9.20215 5.63977C9.94337 5.1743 10.7512 5.26426 11.2305 5.37708C11.7838 5.50733 12.3173 5.76333 12.751 6.00696C13.1822 6.24919 13.599 6.52845 13.9561 6.78625C14.508 6.49974 15.0778 6.24234 15.6641 6.0177C15.7093 5.6156 15.7744 5.17419 15.8701 4.74719C15.9676 4.31254 16.113 3.8136 16.3438 3.36536C16.5548 2.95562 16.9763 2.31708 17.7598 2.03723L17.9365 1.97961C18.3591 1.85157 18.8532 1.77265 19.3105 1.71985C19.8635 1.65602 20.4814 1.61732 21.0898 1.59973Z" fill="#FC7930" stroke="white" stroke-width="3.17685"/>
<path d="M17.0742 17.5353C19.6139 15.0577 23.7162 15.0575 26.2559 17.5353C28.8162 20.0333 28.8161 24.0987 26.2559 26.5968L15.7793 36.8185C13.2396 39.2963 9.13639 39.2963 6.59668 36.8185C4.03659 34.3206 4.03667 30.2549 6.59668 27.757L17.0742 17.5353ZM11.5273 32.0089C11.2592 31.7472 10.8093 31.7464 10.541 32.0079V32.0089C10.2937 32.2503 10.2934 32.6255 10.541 32.8673C10.8093 33.129 11.2591 33.129 11.5273 32.8673C11.7748 32.6256 11.7745 32.2502 11.5273 32.0089ZM15.6465 27.0265L16.5801 27.9366L17.3135 27.2218L16.3799 26.3107L15.6465 27.0265ZM22.3125 21.4865C22.0443 21.2248 21.5945 21.2249 21.3262 21.4865C21.0786 21.728 21.0786 22.1043 21.3262 22.3458C21.5945 22.6071 22.0444 22.6073 22.3125 22.3458C22.56 22.1044 22.5598 21.728 22.3125 21.4865Z" fill="#568689" stroke="white" stroke-width="3"/>
<path d="M9.49275 30.9352C10.3436 30.1051 11.7225 30.1051 12.5734 30.9352C13.4242 31.7653 13.4249 33.1112 12.5742 33.9416C11.7232 34.7717 10.3429 34.7717 9.49198 33.9416C8.64117 33.1112 8.64187 31.7653 9.49275 30.9352ZM16.3794 24.2164L19.4609 27.2227L16.5799 30.0334L13.4985 27.0271L16.3794 24.2164ZM20.2773 20.4135C21.1282 19.5833 22.5078 19.5826 23.3587 20.4127C24.2096 21.2429 24.2096 22.5896 23.3587 23.4198C22.5078 24.2498 21.1282 24.2492 20.2773 23.4191C19.4265 22.5889 19.4266 21.2436 20.2773 20.4135Z" fill="white"/>
</svg>
