<svg width="349" height="205" viewBox="0 0 349 205" fill="none" xmlns="http://www.w3.org/2000/svg">
<defs>
<clipPath id="blobClip">
<path d="M167.409 5.52838C174.848 1.80906 181.295 1.49904 187.311 3.66998C193.164 5.78243 198.375 10.1688 203.583 15.2813C214.17 25.6736 225.248 39.4894 243.104 48.5909C254.332 54.3136 263.651 51.3189 274.062 47.3321C284.353 43.3916 295.78 38.4102 309.815 42.4092C314.03 43.6101 317.156 44.8393 319.381 46.1631C321.601 47.4843 323.166 49.0453 323.824 51.002C324.49 52.9823 324.058 54.8696 323.387 56.4493C322.732 57.9906 321.705 59.5576 320.802 60.9649C318.856 63.9967 317.26 66.681 317.373 69.67C317.48 72.4841 319.185 76.2814 325.835 81.1993C340.173 91.8017 346.564 105.363 346.363 118.259C346.163 131.12 339.4 143.033 328.018 150.288C324.445 152.566 321.632 153.478 318.886 153.325C316.32 153.182 314.013 152.066 311.887 151.211C309.648 150.311 306.997 149.386 303.115 149.055C299.204 148.721 293.942 148.982 286.527 150.599C280.348 151.946 275.987 155.486 272.442 160.272C268.84 165.135 266.191 171.126 263.381 177.279C260.63 183.304 257.708 189.523 253.591 194.235C249.37 199.067 243.858 202.361 236.077 202.502C228.138 202.646 222.47 199.385 218.103 194.485C213.846 189.71 210.778 183.321 207.88 177.148C204.919 170.842 202.115 164.717 198.354 159.847C194.658 155.059 190.151 151.642 183.816 150.622C171.774 148.683 163.58 154.898 154.543 162.412C145.701 169.765 136.021 178.429 121.686 178.429C114.621 178.429 109.628 176.77 105.789 173.945C102.02 171.172 99.5769 167.417 97.3721 163.732C92.9276 156.303 89.1011 148.623 77.3994 144.502C60.6257 138.595 50.4421 140.865 41.2002 140.752C36.5284 140.695 32.103 139.994 27.6016 137.058C23.1776 134.172 18.8993 129.27 14.1436 121.28C2.49565 101.711 -0.562682 84.3591 5.03125 69.4337C10.6016 54.5711 24.5129 42.7724 45.2998 33.7169C60.3723 27.1507 71.2937 31.6862 80.1875 34.418C84.6799 35.7979 88.4489 36.6598 92.2061 35.9717C95.8735 35.3001 99.9014 33.0681 104.633 27.4102C113.487 16.8221 123.934 14.2756 134.67 12.8506C145.482 11.4156 156.294 11.0861 167.409 5.52838Z"/>
</clipPath>
</defs>
<g clip-path="url(#blobClip)">
<rect x="0" y="0" width="349" height="205" fill="#FFF1DB"/>
<rect x="14" y="0" width="14" height="14" fill="#FFE1B8"/>
<rect x="42" y="0" width="14" height="14" fill="#FFE1B8"/>
<rect x="70" y="0" width="14" height="14" fill="#FFE1B8"/>
<rect x="98" y="0" width="14" height="14" fill="#FFE1B8"/>
<rect x="126" y="0" width="14" height="14" fill="#FFE1B8"/>
<rect x="154" y="0" width="14" height="14" fill="#FFE1B8"/>
<rect x="182" y="0" width="14" height="14" fill="#FFE1B8"/>
<rect x="210" y="0" width="14" height="14" fill="#FFE1B8"/>
<rect x="238" y="0" width="14" height="14" fill="#FFE1B8"/>
<rect x="266" y="0" width="14" height="14" fill="#FFE1B8"/>
<rect x="294" y="0" width="14" height="14" fill="#FFE1B8"/>
<rect x="322" y="0" width="14" height="14" fill="#FFE1B8"/>
<rect x="350" y="0" width="14" height="14" fill="#FFE1B8"/>
<rect x="0" y="14" width="14" height="14" fill="#FFE1B8"/>
<rect x="28" y="14" width="14" height="14" fill="#FFE1B8"/>
<rect x="56" y="14" width="14" height="14" fill="#FFE1B8"/>
<rect x="84" y="14" width="14" height="14" fill="#FFE1B8"/>
<rect x="112" y="14" width="14" height="14" fill="#FFE1B8"/>
<rect x="140" y="14" width="14" height="14" fill="#FFE1B8"/>
<rect x="168" y="14" width="14" height="14" fill="#FFE1B8"/>
<rect x="196" y="14" width="14" height="14" fill="#FFE1B8"/>
<rect x="224" y="14" width="14" height="14" fill="#FFE1B8"/>
<rect x="252" y="14" width="14" height="14" fill="#FFE1B8"/>
<rect x="280" y="14" width="14" height="14" fill="#FFE1B8"/>
<rect x="308" y="14" width="14" height="14" fill="#FFE1B8"/>
<rect x="336" y="14" width="14" height="14" fill="#FFE1B8"/>
<rect x="14" y="28" width="14" height="14" fill="#FFE1B8"/>
<rect x="42" y="28" width="14" height="14" fill="#FFE1B8"/>
<rect x="70" y="28" width="14" height="14" fill="#FFE1B8"/>
<rect x="98" y="28" width="14" height="14" fill="#FFE1B8"/>
<rect x="126" y="28" width="14" height="14" fill="#FFE1B8"/>
<rect x="154" y="28" width="14" height="14" fill="#FFE1B8"/>
<rect x="182" y="28" width="14" height="14" fill="#FFE1B8"/>
<rect x="210" y="28" width="14" height="14" fill="#FFE1B8"/>
<rect x="238" y="28" width="14" height="14" fill="#FFE1B8"/>
<rect x="266" y="28" width="14" height="14" fill="#FFE1B8"/>
<rect x="294" y="28" width="14" height="14" fill="#FFE1B8"/>
<rect x="322" y="28" width="14" height="14" fill="#FFE1B8"/>
<rect x="350" y="28" width="14" height="14" fill="#FFE1B8"/>
<rect x="0" y="42" width="14" height="14" fill="#FFE1B8"/>
<rect x="28" y="42" width="14" height="14" fill="#FFE1B8"/>
<rect x="56" y="42" width="14" height="14" fill="#FFE1B8"/>
<rect x="84" y="42" width="14" height="14" fill="#FFE1B8"/>
<rect x="112" y="42" width="14" height="14" fill="#FFE1B8"/>
<rect x="140" y="42" width="14" height="14" fill="#FFE1B8"/>
<rect x="168" y="42" width="14" height="14" fill="#FFE1B8"/>
<rect x="196" y="42" width="14" height="14" fill="#FFE1B8"/>
<rect x="224" y="42" width="14" height="14" fill="#FFE1B8"/>
<rect x="252" y="42" width="14" height="14" fill="#FFE1B8"/>
<rect x="280" y="42" width="14" height="14" fill="#FFE1B8"/>
<rect x="308" y="42" width="14" height="14" fill="#FFE1B8"/>
<rect x="336" y="42" width="14" height="14" fill="#FFE1B8"/>
<rect x="14" y="56" width="14" height="14" fill="#FFE1B8"/>
<rect x="42" y="56" width="14" height="14" fill="#FFE1B8"/>
<rect x="70" y="56" width="14" height="14" fill="#FFE1B8"/>
<rect x="98" y="56" width="14" height="14" fill="#FFE1B8"/>
<rect x="126" y="56" width="14" height="14" fill="#FFE1B8"/>
<rect x="154" y="56" width="14" height="14" fill="#FFE1B8"/>
<rect x="182" y="56" width="14" height="14" fill="#FFE1B8"/>
<rect x="210" y="56" width="14" height="14" fill="#FFE1B8"/>
<rect x="238" y="56" width="14" height="14" fill="#FFE1B8"/>
<rect x="266" y="56" width="14" height="14" fill="#FFE1B8"/>
<rect x="294" y="56" width="14" height="14" fill="#FFE1B8"/>
<rect x="322" y="56" width="14" height="14" fill="#FFE1B8"/>
<rect x="350" y="56" width="14" height="14" fill="#FFE1B8"/>
<rect x="0" y="70" width="14" height="14" fill="#FFE1B8"/>
<rect x="28" y="70" width="14" height="14" fill="#FFE1B8"/>
<rect x="56" y="70" width="14" height="14" fill="#FFE1B8"/>
<rect x="84" y="70" width="14" height="14" fill="#FFE1B8"/>
<rect x="112" y="70" width="14" height="14" fill="#FFE1B8"/>
<rect x="140" y="70" width="14" height="14" fill="#FFE1B8"/>
<rect x="168" y="70" width="14" height="14" fill="#FFE1B8"/>
<rect x="196" y="70" width="14" height="14" fill="#FFE1B8"/>
<rect x="224" y="70" width="14" height="14" fill="#FFE1B8"/>
<rect x="252" y="70" width="14" height="14" fill="#FFE1B8"/>
<rect x="280" y="70" width="14" height="14" fill="#FFE1B8"/>
<rect x="308" y="70" width="14" height="14" fill="#FFE1B8"/>
<rect x="336" y="70" width="14" height="14" fill="#FFE1B8"/>
<rect x="14" y="84" width="14" height="14" fill="#FFE1B8"/>
<rect x="42" y="84" width="14" height="14" fill="#FFE1B8"/>
<rect x="70" y="84" width="14" height="14" fill="#FFE1B8"/>
<rect x="98" y="84" width="14" height="14" fill="#FFE1B8"/>
<rect x="126" y="84" width="14" height="14" fill="#FFE1B8"/>
<rect x="154" y="84" width="14" height="14" fill="#FFE1B8"/>
<rect x="182" y="84" width="14" height="14" fill="#FFE1B8"/>
<rect x="210" y="84" width="14" height="14" fill="#FFE1B8"/>
<rect x="238" y="84" width="14" height="14" fill="#FFE1B8"/>
<rect x="266" y="84" width="14" height="14" fill="#FFE1B8"/>
<rect x="294" y="84" width="14" height="14" fill="#FFE1B8"/>
<rect x="322" y="84" width="14" height="14" fill="#FFE1B8"/>
<rect x="350" y="84" width="14" height="14" fill="#FFE1B8"/>
<rect x="0" y="98" width="14" height="14" fill="#FFE1B8"/>
<rect x="28" y="98" width="14" height="14" fill="#FFE1B8"/>
<rect x="56" y="98" width="14" height="14" fill="#FFE1B8"/>
<rect x="84" y="98" width="14" height="14" fill="#FFE1B8"/>
<rect x="112" y="98" width="14" height="14" fill="#FFE1B8"/>
<rect x="140" y="98" width="14" height="14" fill="#FFE1B8"/>
<rect x="168" y="98" width="14" height="14" fill="#FFE1B8"/>
<rect x="196" y="98" width="14" height="14" fill="#FFE1B8"/>
<rect x="224" y="98" width="14" height="14" fill="#FFE1B8"/>
<rect x="252" y="98" width="14" height="14" fill="#FFE1B8"/>
<rect x="280" y="98" width="14" height="14" fill="#FFE1B8"/>
<rect x="308" y="98" width="14" height="14" fill="#FFE1B8"/>
<rect x="336" y="98" width="14" height="14" fill="#FFE1B8"/>
<rect x="14" y="112" width="14" height="14" fill="#FFE1B8"/>
<rect x="42" y="112" width="14" height="14" fill="#FFE1B8"/>
<rect x="70" y="112" width="14" height="14" fill="#FFE1B8"/>
<rect x="98" y="112" width="14" height="14" fill="#FFE1B8"/>
<rect x="126" y="112" width="14" height="14" fill="#FFE1B8"/>
<rect x="154" y="112" width="14" height="14" fill="#FFE1B8"/>
<rect x="182" y="112" width="14" height="14" fill="#FFE1B8"/>
<rect x="210" y="112" width="14" height="14" fill="#FFE1B8"/>
<rect x="238" y="112" width="14" height="14" fill="#FFE1B8"/>
<rect x="266" y="112" width="14" height="14" fill="#FFE1B8"/>
<rect x="294" y="112" width="14" height="14" fill="#FFE1B8"/>
<rect x="322" y="112" width="14" height="14" fill="#FFE1B8"/>
<rect x="350" y="112" width="14" height="14" fill="#FFE1B8"/>
<rect x="0" y="126" width="14" height="14" fill="#FFE1B8"/>
<rect x="28" y="126" width="14" height="14" fill="#FFE1B8"/>
<rect x="56" y="126" width="14" height="14" fill="#FFE1B8"/>
<rect x="84" y="126" width="14" height="14" fill="#FFE1B8"/>
<rect x="112" y="126" width="14" height="14" fill="#FFE1B8"/>
<rect x="140" y="126" width="14" height="14" fill="#FFE1B8"/>
<rect x="168" y="126" width="14" height="14" fill="#FFE1B8"/>
<rect x="196" y="126" width="14" height="14" fill="#FFE1B8"/>
<rect x="224" y="126" width="14" height="14" fill="#FFE1B8"/>
<rect x="252" y="126" width="14" height="14" fill="#FFE1B8"/>
<rect x="280" y="126" width="14" height="14" fill="#FFE1B8"/>
<rect x="308" y="126" width="14" height="14" fill="#FFE1B8"/>
<rect x="336" y="126" width="14" height="14" fill="#FFE1B8"/>
<rect x="14" y="140" width="14" height="14" fill="#FFE1B8"/>
<rect x="42" y="140" width="14" height="14" fill="#FFE1B8"/>
<rect x="70" y="140" width="14" height="14" fill="#FFE1B8"/>
<rect x="98" y="140" width="14" height="14" fill="#FFE1B8"/>
<rect x="126" y="140" width="14" height="14" fill="#FFE1B8"/>
<rect x="154" y="140" width="14" height="14" fill="#FFE1B8"/>
<rect x="182" y="140" width="14" height="14" fill="#FFE1B8"/>
<rect x="210" y="140" width="14" height="14" fill="#FFE1B8"/>
<rect x="238" y="140" width="14" height="14" fill="#FFE1B8"/>
<rect x="266" y="140" width="14" height="14" fill="#FFE1B8"/>
<rect x="294" y="140" width="14" height="14" fill="#FFE1B8"/>
<rect x="322" y="140" width="14" height="14" fill="#FFE1B8"/>
<rect x="350" y="140" width="14" height="14" fill="#FFE1B8"/>
<rect x="0" y="154" width="14" height="14" fill="#FFE1B8"/>
<rect x="28" y="154" width="14" height="14" fill="#FFE1B8"/>
<rect x="56" y="154" width="14" height="14" fill="#FFE1B8"/>
<rect x="84" y="154" width="14" height="14" fill="#FFE1B8"/>
<rect x="112" y="154" width="14" height="14" fill="#FFE1B8"/>
<rect x="140" y="154" width="14" height="14" fill="#FFE1B8"/>
<rect x="168" y="154" width="14" height="14" fill="#FFE1B8"/>
<rect x="196" y="154" width="14" height="14" fill="#FFE1B8"/>
<rect x="224" y="154" width="14" height="14" fill="#FFE1B8"/>
<rect x="252" y="154" width="14" height="14" fill="#FFE1B8"/>
<rect x="280" y="154" width="14" height="14" fill="#FFE1B8"/>
<rect x="308" y="154" width="14" height="14" fill="#FFE1B8"/>
<rect x="336" y="154" width="14" height="14" fill="#FFE1B8"/>
<rect x="14" y="168" width="14" height="14" fill="#FFE1B8"/>
<rect x="42" y="168" width="14" height="14" fill="#FFE1B8"/>
<rect x="70" y="168" width="14" height="14" fill="#FFE1B8"/>
<rect x="98" y="168" width="14" height="14" fill="#FFE1B8"/>
<rect x="126" y="168" width="14" height="14" fill="#FFE1B8"/>
<rect x="154" y="168" width="14" height="14" fill="#FFE1B8"/>
<rect x="182" y="168" width="14" height="14" fill="#FFE1B8"/>
<rect x="210" y="168" width="14" height="14" fill="#FFE1B8"/>
<rect x="238" y="168" width="14" height="14" fill="#FFE1B8"/>
<rect x="266" y="168" width="14" height="14" fill="#FFE1B8"/>
<rect x="294" y="168" width="14" height="14" fill="#FFE1B8"/>
<rect x="322" y="168" width="14" height="14" fill="#FFE1B8"/>
<rect x="350" y="168" width="14" height="14" fill="#FFE1B8"/>
<rect x="0" y="182" width="14" height="14" fill="#FFE1B8"/>
<rect x="28" y="182" width="14" height="14" fill="#FFE1B8"/>
<rect x="56" y="182" width="14" height="14" fill="#FFE1B8"/>
<rect x="84" y="182" width="14" height="14" fill="#FFE1B8"/>
<rect x="112" y="182" width="14" height="14" fill="#FFE1B8"/>
<rect x="140" y="182" width="14" height="14" fill="#FFE1B8"/>
<rect x="168" y="182" width="14" height="14" fill="#FFE1B8"/>
<rect x="196" y="182" width="14" height="14" fill="#FFE1B8"/>
<rect x="224" y="182" width="14" height="14" fill="#FFE1B8"/>
<rect x="252" y="182" width="14" height="14" fill="#FFE1B8"/>
<rect x="280" y="182" width="14" height="14" fill="#FFE1B8"/>
<rect x="308" y="182" width="14" height="14" fill="#FFE1B8"/>
<rect x="336" y="182" width="14" height="14" fill="#FFE1B8"/>
<rect x="14" y="196" width="14" height="14" fill="#FFE1B8"/>
<rect x="42" y="196" width="14" height="14" fill="#FFE1B8"/>
<rect x="70" y="196" width="14" height="14" fill="#FFE1B8"/>
<rect x="98" y="196" width="14" height="14" fill="#FFE1B8"/>
<rect x="126" y="196" width="14" height="14" fill="#FFE1B8"/>
<rect x="154" y="196" width="14" height="14" fill="#FFE1B8"/>
<rect x="182" y="196" width="14" height="14" fill="#FFE1B8"/>
<rect x="210" y="196" width="14" height="14" fill="#FFE1B8"/>
<rect x="238" y="196" width="14" height="14" fill="#FFE1B8"/>
<rect x="266" y="196" width="14" height="14" fill="#FFE1B8"/>
<rect x="294" y="196" width="14" height="14" fill="#FFE1B8"/>
<rect x="322" y="196" width="14" height="14" fill="#FFE1B8"/>
<rect x="350" y="196" width="14" height="14" fill="#FFE1B8"/>
<rect x="0" y="210" width="14" height="14" fill="#FFE1B8"/>
<rect x="28" y="210" width="14" height="14" fill="#FFE1B8"/>
<rect x="56" y="210" width="14" height="14" fill="#FFE1B8"/>
<rect x="84" y="210" width="14" height="14" fill="#FFE1B8"/>
<rect x="112" y="210" width="14" height="14" fill="#FFE1B8"/>
<rect x="140" y="210" width="14" height="14" fill="#FFE1B8"/>
<rect x="168" y="210" width="14" height="14" fill="#FFE1B8"/>
<rect x="196" y="210" width="14" height="14" fill="#FFE1B8"/>
<rect x="224" y="210" width="14" height="14" fill="#FFE1B8"/>
<rect x="252" y="210" width="14" height="14" fill="#FFE1B8"/>
<rect x="280" y="210" width="14" height="14" fill="#FFE1B8"/>
<rect x="308" y="210" width="14" height="14" fill="#FFE1B8"/>
<rect x="336" y="210" width="14" height="14" fill="#FFE1B8"/>
</g>
<path d="M167.409 5.52838C174.848 1.80906 181.295 1.49904 187.311 3.66998C193.164 5.78243 198.375 10.1688 203.583 15.2813C214.17 25.6736 225.248 39.4894 243.104 48.5909C254.332 54.3136 263.651 51.3189 274.062 47.3321C284.353 43.3916 295.78 38.4102 309.815 42.4092C314.03 43.6101 317.156 44.8393 319.381 46.1631C321.601 47.4843 323.166 49.0453 323.824 51.002C324.49 52.9823 324.058 54.8696 323.387 56.4493C322.732 57.9906 321.705 59.5576 320.802 60.9649C318.856 63.9967 317.26 66.681 317.373 69.67C317.48 72.4841 319.185 76.2814 325.835 81.1993C340.173 91.8017 346.564 105.363 346.363 118.259C346.163 131.12 339.4 143.033 328.018 150.288C324.445 152.566 321.632 153.478 318.886 153.325C316.32 153.182 314.013 152.066 311.887 151.211C309.648 150.311 306.997 149.386 303.115 149.055C299.204 148.721 293.942 148.982 286.527 150.599C280.348 151.946 275.987 155.486 272.442 160.272C268.84 165.135 266.191 171.126 263.381 177.279C260.63 183.304 257.708 189.523 253.591 194.235C249.37 199.067 243.858 202.361 236.077 202.502C228.138 202.646 222.47 199.385 218.103 194.485C213.846 189.71 210.778 183.321 207.88 177.148C204.919 170.842 202.115 164.717 198.354 159.847C194.658 155.059 190.151 151.642 183.816 150.622C171.774 148.683 163.58 154.898 154.543 162.412C145.701 169.765 136.021 178.429 121.686 178.429C114.621 178.429 109.628 176.77 105.789 173.945C102.02 171.172 99.5769 167.417 97.3721 163.732C92.9276 156.303 89.1011 148.623 77.3994 144.502C60.6257 138.595 50.4421 140.865 41.2002 140.752C36.5284 140.695 32.103 139.994 27.6016 137.058C23.1776 134.172 18.8993 129.27 14.1436 121.28C2.49565 101.711 -0.562682 84.3591 5.03125 69.4337C10.6016 54.5711 24.5129 42.7724 45.2998 33.7169C60.3723 27.1507 71.2937 31.6862 80.1875 34.418C84.6799 35.7979 88.4489 36.6598 92.2061 35.9717C95.8735 35.3001 99.9014 33.0681 104.633 27.4102C113.487 16.8221 123.934 14.2756 134.67 12.8506C145.482 11.4156 156.294 11.0861 167.409 5.52838Z" fill="none" stroke="white" stroke-width="4.62952"/>
<path d="M223.347 78.4405C224.523 78.3677 225.832 78.3657 226.645 78.4903C227.522 78.6247 228.062 79.2204 228.347 79.6439C228.645 80.0864 228.842 80.5953 228.978 81.0341C229.117 81.4818 229.22 81.9532 229.297 82.3847C230.021 82.5948 230.726 82.8524 231.406 83.1546C231.718 82.9049 232.067 82.6468 232.425 82.4205C232.788 82.1912 233.227 81.9519 233.693 81.8053C234.126 81.6693 234.843 81.5299 235.569 81.8627L235.569 81.8637C236.01 82.066 236.485 82.3969 236.902 82.7188C237.342 83.0591 237.811 83.4629 238.259 83.875C239.126 84.6733 240.034 85.6171 240.507 86.2897C241.013 87.0088 240.962 87.8027 240.857 88.3008C240.747 88.8195 240.521 89.311 240.301 89.7104C240.074 90.1245 239.803 90.5287 239.543 90.8864C239.847 91.4868 240.115 92.1085 240.346 92.7487C240.747 92.8015 241.191 92.8756 241.621 92.9794C242.062 93.0858 242.568 93.2416 243.02 93.4825C243.43 93.701 244.078 94.1387 244.345 94.9436L244.345 94.9446C244.497 95.405 244.578 95.9777 244.627 96.5016C244.678 97.0559 244.703 97.6754 244.707 98.2841C244.714 99.4626 244.642 100.77 244.472 101.574L244.472 101.575C244.285 102.461 243.638 102.97 243.194 103.228C242.725 103.5 242.195 103.667 241.739 103.777C241.275 103.889 240.791 103.964 240.353 104.014C240.262 104.267 240.163 104.517 240.06 104.764C240.318 105.079 240.599 105.442 240.849 105.821C241.107 106.211 241.379 106.685 241.551 107.181C241.706 107.625 241.895 108.415 241.522 109.206C241.315 109.645 240.978 110.116 240.652 110.529C240.307 110.965 239.898 111.431 239.481 111.874C238.774 112.626 237.956 113.406 237.309 113.902L237.043 114.096C236.317 114.595 235.521 114.535 235.024 114.424C234.506 114.308 234.017 114.075 233.619 113.85C233.219 113.625 232.828 113.359 232.481 113.102C232.168 113.271 231.848 113.43 231.523 113.578C231.51 113.978 231.482 114.422 231.422 114.855C231.36 115.307 231.254 115.829 231.058 116.305C230.882 116.736 230.509 117.431 229.728 117.777C229.285 117.974 228.722 118.11 228.206 118.209C227.659 118.314 227.045 118.398 226.439 118.461C225.267 118.583 223.959 118.64 223.142 118.549C222.205 118.445 221.628 117.807 221.332 117.379C221.015 116.922 220.798 116.388 220.645 115.927C220.491 115.465 220.372 114.982 220.283 114.549C219.687 114.392 219.104 114.203 218.536 113.983L216.363 113.144L217.939 111.427L223.908 104.927L224.359 104.436L225.054 104.413C228.315 104.306 230.871 101.575 230.764 98.3148C230.656 95.054 227.926 92.4968 224.665 92.604C221.532 92.7071 219.049 95.2332 218.956 98.3231L218.938 98.9119L218.541 99.3461L218.469 99.4247L218.467 99.4277L212.209 106.243L210.65 107.939L209.618 105.879C209.404 105.452 209.21 105.013 209.033 104.566C208.634 104.53 208.198 104.477 207.777 104.392C207.345 104.305 206.848 104.172 206.399 103.953C205.986 103.752 205.347 103.348 205.05 102.58C204.875 102.128 204.767 101.56 204.693 101.039C204.614 100.488 204.559 99.8707 204.526 99.2629C204.461 98.086 204.468 96.7767 204.598 95.9648L204.631 95.7986C204.822 94.9904 205.407 94.4983 205.815 94.2373C206.276 93.9427 206.805 93.7497 207.261 93.6182C207.727 93.4834 208.215 93.3852 208.655 93.3144C208.756 92.9999 208.866 92.6894 208.985 92.3831C208.715 92.0916 208.427 91.7609 208.168 91.4153C207.896 91.0516 207.605 90.6079 207.411 90.1338C207.234 89.7039 207.014 88.9528 207.323 88.162L207.394 87.9906C207.574 87.5874 207.84 87.1625 208.1 86.7822C208.414 86.3228 208.789 85.8304 209.175 85.3594C209.921 84.4472 210.811 83.4858 211.455 82.9745L211.598 82.8692C212.324 82.3796 213.134 82.4429 213.617 82.5399C214.174 82.6519 214.716 82.8903 215.157 83.1195C215.596 83.3474 216.022 83.6128 216.387 83.8587C216.929 83.5542 217.49 83.2782 218.069 83.0344C218.101 82.6311 218.151 82.1878 218.233 81.7579C218.316 81.3202 218.445 80.8168 218.661 80.3612C218.858 79.9447 219.259 79.2927 220.033 78.9872L220.207 78.9238C220.626 78.782 221.117 78.6868 221.572 78.619C222.123 78.5371 222.739 78.4781 223.347 78.4405Z" fill="#FC7930" stroke="white" stroke-width="3.17685"/>
<path d="M219.857 94.4994C222.314 91.9397 226.414 91.8047 229.034 94.1976C231.675 96.61 231.808 100.673 229.332 103.254L219.197 113.815C216.74 116.375 212.639 116.51 210.019 114.117C207.378 111.704 207.245 107.641 209.721 105.06L219.857 94.4994ZM214.789 109.148C214.512 108.895 214.063 108.909 213.803 109.179L213.803 109.18C213.564 109.429 213.576 109.804 213.831 110.038C214.108 110.291 214.558 110.276 214.817 110.006C215.057 109.756 215.044 109.381 214.789 109.148ZM218.742 104.032L219.705 104.911L220.415 104.173L219.452 103.293L218.742 104.032ZM225.222 98.2763C224.946 98.0235 224.496 98.0384 224.237 98.3087C223.997 98.5582 224.009 98.9343 224.265 99.1676C224.542 99.4199 224.991 99.4054 225.251 99.1352C225.49 98.8857 225.477 98.5095 225.222 98.2763Z" fill="#568689" stroke="white" stroke-width="3"/>
<path d="M212.72 108.141C213.543 107.284 214.921 107.238 215.799 108.04C216.677 108.842 216.722 110.187 215.899 111.045C215.076 111.902 213.696 111.948 212.818 111.146C211.941 110.344 211.897 108.999 212.72 108.141ZM219.382 101.2L222.561 104.103L219.774 107.007L216.595 104.104L219.382 101.2ZM223.153 97.2707C223.976 96.413 225.355 96.367 226.233 97.1687C227.11 97.9704 227.155 99.3164 226.332 100.174C225.508 101.032 224.13 101.076 223.252 100.275C222.374 99.473 222.33 98.1284 223.153 97.2707Z" fill="white"/>
<mask id="path-5-outside-1_7_94" maskUnits="userSpaceOnUse" x="23.5314" y="51.852" width="282.676" height="95.1592" fill="black">
<rect fill="white" x="23.5314" y="51.852" width="282.676" height="95.1592"/>
<path d="M66.1107 80.6523C66.2131 83.7653 65.8345 86.5313 64.9748 88.9502C64.1579 91.3677 62.9445 93.414 61.3347 95.0892C62.8135 97.2177 63.5866 99.3054 63.6539 101.352C63.7114 103.101 63.0768 104.573 61.7501 105.769C60.466 106.964 58.9711 107.59 57.2653 107.646C56.2845 107.678 55.3841 107.558 54.5641 107.286C53.744 107.015 52.853 106.532 51.891 105.837C51.0597 105.224 50.2634 104.376 49.502 103.291C48.7405 102.206 48.127 101.073 47.6613 99.8933C46.2484 99.769 44.8293 99.4529 43.4038 98.9448C43.7045 100.301 43.8668 101.342 43.8907 102.066C44.0239 106.118 41.9797 108.213 37.758 108.351C34.2186 108.468 31.6559 106.482 30.0699 102.393C28.484 98.3043 27.5928 93.2749 27.3964 87.3048C27.2632 83.2536 27.8633 79.4345 29.1967 75.8474C30.5714 72.2162 32.7368 69.2634 35.693 66.989C38.6477 64.672 42.2999 63.4419 46.6496 63.2988C50.1464 63.1838 53.3479 63.8255 56.2541 65.2241C59.1589 66.58 61.4877 68.5952 63.2406 71.2696C65.0361 73.9427 65.9928 77.0703 66.1107 80.6523ZM42.2865 84.4457C42.3342 85.8956 42.952 87.1559 44.1398 88.2268C45.3262 89.255 46.6657 89.7446 48.1583 89.6955C49.6934 89.645 50.9978 89.0684 52.0715 87.9659C53.1864 86.8193 53.72 85.521 53.6723 84.0711C53.6232 82.5786 53.0055 81.3182 51.819 80.29C50.6738 79.2178 49.3336 78.7069 47.7984 78.7574C46.3059 78.8065 45.0022 79.4043 43.8873 80.5509C42.7724 81.6975 42.2388 82.9958 42.2865 84.4457Z"/>
<path d="M82.6749 118.464C79.5192 118.568 76.7057 118.042 74.2344 116.885C71.763 115.728 69.8086 114.064 68.371 111.891C66.9747 109.674 66.2303 107.159 66.1377 104.344C66.0465 101.572 66.6233 98.9921 67.8681 96.6032C69.1556 94.2129 70.9702 92.2749 73.3119 90.7891C75.6537 89.3033 78.3384 88.5106 81.3661 88.411C84.0953 88.3212 86.5229 88.7963 88.6489 89.8363C90.7749 90.8763 92.4224 92.2949 93.5915 94.0921C94.7591 95.8467 95.3752 97.7048 95.4398 99.6664C95.545 102.865 94.4068 105.25 92.0252 106.822C89.6848 108.351 86.8515 109.17 83.5253 109.279C81.3079 109.352 79.4224 109.137 77.869 108.633C79.2171 110.68 81.3623 111.656 84.3047 111.559C85.4987 111.52 86.7731 111.328 88.1279 110.985C88.6354 110.84 89.1237 110.76 89.5928 110.745C90.531 110.714 91.2849 110.924 91.8547 111.375C92.4672 111.824 92.7867 112.454 92.8134 113.264C92.8569 114.586 92.0845 115.764 90.4963 116.798C88.9067 117.79 86.2996 118.345 82.6749 118.464ZM77.8042 100.823C78.2077 101.407 78.7341 101.838 79.3836 102.116C80.0743 102.349 80.8248 102.452 81.635 102.426C82.5732 102.395 83.3764 102.155 84.0446 101.706C84.7555 101.256 85.0998 100.69 85.0773 100.007C85.0521 99.2397 84.7105 98.5892 84.0526 98.0559C83.4374 97.5211 82.5541 97.2727 81.4027 97.3106C80.2513 97.3485 79.3464 97.7411 78.688 98.4885C78.0707 99.1918 77.7762 99.9699 77.8042 100.823Z"/>
<path d="M111.341 80.8294C115.523 80.7772 118.544 81.1261 120.404 81.876C122.307 82.6245 123.297 84.1501 123.372 86.4529C123.447 88.713 122.538 90.2797 120.645 91.1531C118.794 91.9824 115.866 92.5056 111.86 92.7227L112.091 97.7739C112.16 98.5827 112.218 99.7121 112.266 101.162C112.326 102.996 111.857 104.313 110.859 105.114C109.86 105.873 108.678 106.275 107.313 106.32C104.968 106.397 103.223 105.28 102.08 102.97C100.937 100.66 100.166 97.3337 99.7667 92.9925C96.9878 92.8705 94.9021 92.4055 93.5094 91.5975C92.1594 90.7881 91.4529 89.4239 91.3897 87.5049C91.3266 85.586 91.942 84.1783 93.2359 83.282C94.571 82.3416 96.6203 81.6978 99.3837 81.3508C99.5035 77.206 100.008 73.7102 100.896 70.8634C101.784 68.0167 103.311 65.7679 105.476 64.1172C107.641 62.4238 110.599 61.5153 114.352 61.3919C116.697 61.3147 118.656 61.8053 120.227 62.8635C121.84 63.8777 122.68 65.4082 122.747 67.4551C122.818 69.5873 122.21 71.2295 120.924 72.3817C119.68 73.4899 117.935 74.2944 115.689 74.7952C114.206 75.1428 113.141 75.8395 112.492 76.8854C111.842 77.8887 111.458 79.2033 111.341 80.8294Z"/>
<path d="M131.963 117.739C128.636 117.849 125.883 117.192 123.701 115.77C121.519 114.305 120.38 112.144 120.286 109.287C120.205 106.813 121.228 104.816 123.355 103.295C125.482 101.773 128.166 100.959 131.407 100.852C132.601 100.813 133.713 100.883 134.744 101.063C135.815 101.198 136.547 101.388 136.94 101.631C136.905 100.565 136.428 99.7055 135.51 99.0526C134.591 98.3571 133.214 98.0396 131.381 98.0999C130.57 98.1265 129.911 98.2122 129.404 98.357C128.896 98.5018 128.348 98.7119 127.76 98.9874C127.171 99.2629 126.623 99.473 126.116 99.6178C125.651 99.7612 125.013 99.8462 124.203 99.8728C122.838 99.9177 121.761 99.6116 120.971 98.9546C120.18 98.2549 119.76 97.1801 119.712 95.7302C119.658 94.0671 120.208 92.6402 121.364 91.4496C122.563 90.2575 124.07 89.3541 125.886 88.7395C127.7 88.0821 129.524 87.7233 131.357 87.663C134.982 87.5438 138.032 88.1265 140.508 89.4111C143.025 90.6517 144.895 92.3618 146.12 94.5414C147.386 96.7196 148.064 99.1519 148.153 101.838C148.2 103.288 148.117 104.636 147.901 105.881C147.729 107.125 147.462 108.094 147.101 108.789C147.714 109.281 148.182 109.863 148.503 110.536C148.866 111.207 149.06 111.905 149.084 112.63C149.125 113.866 148.733 114.946 147.91 115.87C147.129 116.792 146.056 117.276 144.692 117.321C143.668 117.354 142.832 117.232 142.182 116.955C141.533 116.677 140.835 116.231 140.089 115.615C139.044 116.29 137.887 116.797 136.617 117.138C135.39 117.477 133.839 117.678 131.963 117.739ZM133.029 111.237C133.925 111.207 134.622 110.992 135.121 110.592C135.663 110.19 135.925 109.711 135.907 109.157C135.888 108.603 135.596 108.143 135.029 107.777C134.504 107.41 133.794 107.241 132.899 107.271C132.003 107.3 131.285 107.516 130.743 107.918C130.244 108.319 130.003 108.796 130.022 109.351C130.04 109.905 130.311 110.366 130.836 110.733C131.403 111.098 132.134 111.266 133.029 111.237Z"/>
<path d="M168.313 126.277C165.583 126.367 162.982 125.791 160.508 124.549C158.075 123.263 156.095 121.492 154.57 119.237C153.044 116.982 152.234 114.426 152.14 111.569C152.042 108.584 152.66 105.959 153.994 103.695C155.37 101.388 157.211 99.5981 159.517 98.327C161.866 97.0544 164.405 96.3732 167.134 96.2834C169.735 96.1979 172.097 96.6324 174.221 97.5871C176.344 98.5418 178.008 99.8318 179.214 101.457C180.419 103.04 181.051 104.726 181.11 106.517C181.159 108.01 180.728 109.177 179.816 110.018C178.947 110.858 177.617 111.307 175.826 111.366C174.888 111.397 174.158 111.25 173.635 110.926C173.112 110.601 172.562 110.107 171.985 109.443C171.452 108.82 170.947 108.367 170.468 108.084C170.03 107.757 169.406 107.607 168.596 107.633C167.444 107.671 166.477 108.109 165.693 108.946C164.908 109.74 164.536 110.755 164.577 111.992C164.619 113.271 165.037 114.282 165.829 115.024C166.665 115.765 167.68 116.116 168.874 116.077C169.641 116.052 170.235 115.925 170.654 115.698C171.074 115.471 171.531 115.114 172.028 114.628C172.608 114.097 173.15 113.716 173.655 113.486C174.158 113.214 174.9 113.061 175.881 113.029C177.63 112.971 178.988 113.396 179.957 114.304C180.926 115.211 181.431 116.283 181.472 117.52C181.519 118.969 180.989 120.353 179.879 121.67C178.813 122.986 177.269 124.061 175.247 124.896C173.225 125.731 170.914 126.191 168.313 126.277Z"/>
<path d="M206.518 84.6783C206.591 86.8958 205.596 88.444 203.533 89.323C201.468 90.1593 198.625 90.6584 195.001 90.8203C194.994 91.8877 195.029 93.6155 195.108 96.0036C195.188 98.4342 195.415 100.156 195.79 101.168C196.027 101.886 196.362 102.344 196.796 102.544C197.272 102.741 197.959 102.868 198.857 102.924C199.157 102.957 199.479 103.01 199.823 103.084C200.208 103.114 200.637 103.164 201.109 103.234C202.097 103.415 202.882 103.923 203.464 104.758C204.045 105.55 204.357 106.585 204.399 107.865C204.446 109.314 203.737 110.469 202.271 111.328C200.806 112.188 198.772 112.66 196.171 112.746C193.783 112.824 191.479 112.217 189.259 110.924C187.038 109.588 185.484 107.761 184.596 105.442C183.661 102.954 183.078 98.2136 182.848 91.22C179.86 91.233 177.438 90.9284 175.582 90.3064C173.767 89.6404 172.829 88.3906 172.769 86.5569C172.693 84.2541 173.496 82.6909 175.176 81.8672C176.855 81.0009 179.293 80.4938 182.49 80.3459C182.506 76.9302 182.946 74.0769 183.809 71.7859C184.672 69.4523 186.318 68.2455 188.749 68.1656C191.222 68.0842 192.857 69.0977 193.652 71.206C194.489 73.313 194.927 76.2228 194.963 79.9356C198.843 79.7653 201.71 79.9698 203.564 80.5492C205.462 81.1271 206.446 82.5035 206.518 84.6783Z"/>
<path d="M249.728 136.532C246.999 136.622 245.113 135.083 244.069 131.916C243.069 128.747 242.476 124.348 242.29 118.719C242.206 116.16 242.243 114.025 242.4 112.312C242.598 110.555 243.126 109.065 243.982 107.842C244.879 106.574 246.287 105.909 248.206 105.846C249.4 105.806 250.454 106.049 251.368 106.574C252.325 107.097 252.947 107.867 253.237 108.882C254.147 107.998 255.341 107.318 256.82 106.843C258.298 106.367 259.89 106.102 261.596 106.045C262.961 106.001 264.358 106.296 265.787 106.932C267.26 107.567 268.484 108.466 269.462 109.629C270.481 110.748 271.012 111.99 271.057 113.354C271.102 114.719 270.652 115.95 269.706 117.049C268.802 118.103 267.561 118.656 265.983 118.708C265.471 118.725 264.979 118.677 264.505 118.565C264.075 118.451 263.687 118.335 263.341 118.219C262.477 117.906 261.789 117.757 261.278 117.774C259.615 117.829 258.165 118.538 256.929 119.902C255.735 121.222 255.171 122.906 255.238 124.953C255.313 127.213 255.289 129.092 255.168 130.59C255.046 132.088 254.579 133.448 253.765 134.67C252.95 135.85 251.605 136.47 249.728 136.532Z"/>
<path d="M280.695 129.56C278.392 129.636 276.458 129.251 274.894 128.406C273.329 127.561 272.518 126.264 272.461 124.516C272.414 123.109 273.039 121.978 274.334 121.124C275.629 120.271 277.174 119.857 278.968 119.883C280.847 119.907 282.294 119.774 283.309 119.484C284.367 119.193 285.161 118.698 285.693 117.997C281.77 118.126 278.618 117.675 276.236 116.643C273.853 115.569 272.089 113.856 270.944 111.503C269.84 109.106 269.224 105.924 269.093 101.958C268.981 98.5468 269.402 95.7795 270.357 93.6563C271.353 91.489 272.981 90.3682 275.241 90.2939C277.245 90.228 278.735 90.7553 279.711 91.8758C280.729 92.9522 281.267 94.386 281.326 96.177L281.354 98.9936C281.33 99.5494 281.335 100.36 281.37 101.426C281.438 103.473 281.745 105.021 282.291 106.071C282.837 107.077 283.877 107.555 285.412 107.505C286.947 107.454 287.954 106.909 288.432 105.869C288.909 104.786 289.114 103.242 289.048 101.238C289.013 100.172 288.965 99.3622 288.904 98.8093L288.75 96.0609C288.687 94.1419 289.106 92.6126 290.008 91.473C290.952 90.332 292.426 89.7286 294.431 89.6626C296.691 89.5883 298.389 90.5997 299.525 92.6968C300.661 94.7939 301.285 97.5269 301.396 100.896C301.561 105.928 300.988 110.578 299.677 114.848C298.408 119.073 296.195 122.54 293.04 125.248C289.927 127.954 285.812 129.391 280.695 129.56Z"/>
</mask>
<path d="M66.1107 80.6523C66.2131 83.7653 65.8345 86.5313 64.9748 88.9502C64.1579 91.3677 62.9445 93.414 61.3347 95.0892C62.8135 97.2177 63.5866 99.3054 63.6539 101.352C63.7114 103.101 63.0768 104.573 61.7501 105.769C60.466 106.964 58.9711 107.59 57.2653 107.646C56.2845 107.678 55.3841 107.558 54.5641 107.286C53.744 107.015 52.853 106.532 51.891 105.837C51.0597 105.224 50.2634 104.376 49.502 103.291C48.7405 102.206 48.127 101.073 47.6613 99.8933C46.2484 99.769 44.8293 99.4529 43.4038 98.9448C43.7045 100.301 43.8668 101.342 43.8907 102.066C44.0239 106.118 41.9797 108.213 37.758 108.351C34.2186 108.468 31.6559 106.482 30.0699 102.393C28.484 98.3043 27.5928 93.2749 27.3964 87.3048C27.2632 83.2536 27.8633 79.4345 29.1967 75.8474C30.5714 72.2162 32.7368 69.2634 35.693 66.989C38.6477 64.672 42.2999 63.4419 46.6496 63.2988C50.1464 63.1838 53.3479 63.8255 56.2541 65.2241C59.1589 66.58 61.4877 68.5952 63.2406 71.2696C65.0361 73.9427 65.9928 77.0703 66.1107 80.6523ZM42.2865 84.4457C42.3342 85.8956 42.952 87.1559 44.1398 88.2268C45.3262 89.255 46.6657 89.7446 48.1583 89.6955C49.6934 89.645 50.9978 89.0684 52.0715 87.9659C53.1864 86.8193 53.72 85.521 53.6723 84.0711C53.6232 82.5786 53.0055 81.3182 51.819 80.29C50.6738 79.2178 49.3336 78.7069 47.7984 78.7574C46.3059 78.8065 45.0022 79.4043 43.8873 80.5509C42.7724 81.6975 42.2388 82.9958 42.2865 84.4457Z" fill="#FCD134"/>
<path d="M82.6749 118.464C79.5192 118.568 76.7057 118.042 74.2344 116.885C71.763 115.728 69.8086 114.064 68.371 111.891C66.9747 109.674 66.2303 107.159 66.1377 104.344C66.0465 101.572 66.6233 98.9921 67.8681 96.6032C69.1556 94.2129 70.9702 92.2749 73.3119 90.7891C75.6537 89.3033 78.3384 88.5106 81.3661 88.411C84.0953 88.3212 86.5229 88.7963 88.6489 89.8363C90.7749 90.8763 92.4224 92.2949 93.5915 94.0921C94.7591 95.8467 95.3752 97.7048 95.4398 99.6664C95.545 102.865 94.4068 105.25 92.0252 106.822C89.6848 108.351 86.8515 109.17 83.5253 109.279C81.3079 109.352 79.4224 109.137 77.869 108.633C79.2171 110.68 81.3623 111.656 84.3047 111.559C85.4987 111.52 86.7731 111.328 88.1279 110.985C88.6354 110.84 89.1237 110.76 89.5928 110.745C90.531 110.714 91.2849 110.924 91.8547 111.375C92.4672 111.824 92.7867 112.454 92.8134 113.264C92.8569 114.586 92.0845 115.764 90.4963 116.798C88.9067 117.79 86.2996 118.345 82.6749 118.464ZM77.8042 100.823C78.2077 101.407 78.7341 101.838 79.3836 102.116C80.0743 102.349 80.8248 102.452 81.635 102.426C82.5732 102.395 83.3764 102.155 84.0446 101.706C84.7555 101.256 85.0998 100.69 85.0773 100.007C85.0521 99.2397 84.7105 98.5892 84.0526 98.0559C83.4374 97.5211 82.5541 97.2727 81.4027 97.3106C80.2513 97.3485 79.3464 97.7411 78.688 98.4885C78.0707 99.1918 77.7762 99.9699 77.8042 100.823Z" fill="#FCD134"/>
<path d="M111.341 80.8294C115.523 80.7772 118.544 81.1261 120.404 81.876C122.307 82.6245 123.297 84.1501 123.372 86.4529C123.447 88.713 122.538 90.2797 120.645 91.1531C118.794 91.9824 115.866 92.5056 111.86 92.7227L112.091 97.7739C112.16 98.5827 112.218 99.7121 112.266 101.162C112.326 102.996 111.857 104.313 110.859 105.114C109.86 105.873 108.678 106.275 107.313 106.32C104.968 106.397 103.223 105.28 102.08 102.97C100.937 100.66 100.166 97.3337 99.7667 92.9925C96.9878 92.8705 94.9021 92.4055 93.5094 91.5975C92.1594 90.7881 91.4529 89.4239 91.3897 87.5049C91.3266 85.586 91.942 84.1783 93.2359 83.282C94.571 82.3416 96.6203 81.6978 99.3837 81.3508C99.5035 77.206 100.008 73.7102 100.896 70.8634C101.784 68.0167 103.311 65.7679 105.476 64.1172C107.641 62.4238 110.599 61.5153 114.352 61.3919C116.697 61.3147 118.656 61.8053 120.227 62.8635C121.84 63.8777 122.68 65.4082 122.747 67.4551C122.818 69.5873 122.21 71.2295 120.924 72.3817C119.68 73.4899 117.935 74.2944 115.689 74.7952C114.206 75.1428 113.141 75.8395 112.492 76.8854C111.842 77.8887 111.458 79.2033 111.341 80.8294Z" fill="#FB6383"/>
<path d="M131.963 117.739C128.636 117.849 125.883 117.192 123.701 115.77C121.519 114.305 120.38 112.144 120.286 109.287C120.205 106.813 121.228 104.816 123.355 103.295C125.482 101.773 128.166 100.959 131.407 100.852C132.601 100.813 133.713 100.883 134.744 101.063C135.815 101.198 136.547 101.388 136.94 101.631C136.905 100.565 136.428 99.7055 135.51 99.0526C134.591 98.3571 133.214 98.0396 131.381 98.0999C130.57 98.1265 129.911 98.2122 129.404 98.357C128.896 98.5018 128.348 98.7119 127.76 98.9874C127.171 99.2629 126.623 99.473 126.116 99.6178C125.651 99.7612 125.013 99.8462 124.203 99.8728C122.838 99.9177 121.761 99.6116 120.971 98.9546C120.18 98.2549 119.76 97.1801 119.712 95.7302C119.658 94.0671 120.208 92.6402 121.364 91.4496C122.563 90.2575 124.07 89.3541 125.886 88.7395C127.7 88.0821 129.524 87.7233 131.357 87.663C134.982 87.5438 138.032 88.1265 140.508 89.4111C143.025 90.6517 144.895 92.3618 146.12 94.5414C147.386 96.7196 148.064 99.1519 148.153 101.838C148.2 103.288 148.117 104.636 147.901 105.881C147.729 107.125 147.462 108.094 147.101 108.789C147.714 109.281 148.182 109.863 148.503 110.536C148.866 111.207 149.06 111.905 149.084 112.63C149.125 113.866 148.733 114.946 147.91 115.87C147.129 116.792 146.056 117.276 144.692 117.321C143.668 117.354 142.832 117.232 142.182 116.955C141.533 116.677 140.835 116.231 140.089 115.615C139.044 116.29 137.887 116.797 136.617 117.138C135.39 117.477 133.839 117.678 131.963 117.739ZM133.029 111.237C133.925 111.207 134.622 110.992 135.121 110.592C135.663 110.19 135.925 109.711 135.907 109.157C135.888 108.603 135.596 108.143 135.029 107.777C134.504 107.41 133.794 107.241 132.899 107.271C132.003 107.3 131.285 107.516 130.743 107.918C130.244 108.319 130.003 108.796 130.022 109.351C130.04 109.905 130.311 110.366 130.836 110.733C131.403 111.098 132.134 111.266 133.029 111.237Z" fill="#FB6383"/>
<path d="M168.313 126.277C165.583 126.367 162.982 125.791 160.508 124.549C158.075 123.263 156.095 121.492 154.57 119.237C153.044 116.982 152.234 114.426 152.14 111.569C152.042 108.584 152.66 105.959 153.994 103.695C155.37 101.388 157.211 99.5981 159.517 98.327C161.866 97.0544 164.405 96.3732 167.134 96.2834C169.735 96.1979 172.097 96.6324 174.221 97.5871C176.344 98.5418 178.008 99.8318 179.214 101.457C180.419 103.04 181.051 104.726 181.11 106.517C181.159 108.01 180.728 109.177 179.816 110.018C178.947 110.858 177.617 111.307 175.826 111.366C174.888 111.397 174.158 111.25 173.635 110.926C173.112 110.601 172.562 110.107 171.985 109.443C171.452 108.82 170.947 108.367 170.468 108.084C170.03 107.757 169.406 107.607 168.596 107.633C167.444 107.671 166.477 108.109 165.693 108.946C164.908 109.74 164.536 110.755 164.577 111.992C164.619 113.271 165.037 114.282 165.829 115.024C166.665 115.765 167.68 116.116 168.874 116.077C169.641 116.052 170.235 115.925 170.654 115.698C171.074 115.471 171.531 115.114 172.028 114.628C172.608 114.097 173.15 113.716 173.655 113.486C174.158 113.214 174.9 113.061 175.881 113.029C177.63 112.971 178.988 113.396 179.957 114.304C180.926 115.211 181.431 116.283 181.472 117.52C181.519 118.969 180.989 120.353 179.879 121.67C178.813 122.986 177.269 124.061 175.247 124.896C173.225 125.731 170.914 126.191 168.313 126.277Z" fill="#8FCD68"/>
<path d="M206.518 84.6783C206.591 86.8958 205.596 88.444 203.533 89.323C201.468 90.1593 198.625 90.6584 195.001 90.8203C194.994 91.8877 195.029 93.6155 195.108 96.0036C195.188 98.4342 195.415 100.156 195.79 101.168C196.027 101.886 196.362 102.344 196.796 102.544C197.272 102.741 197.959 102.868 198.857 102.924C199.157 102.957 199.479 103.01 199.823 103.084C200.208 103.114 200.637 103.164 201.109 103.234C202.097 103.415 202.882 103.923 203.464 104.758C204.045 105.55 204.357 106.585 204.399 107.865C204.446 109.314 203.737 110.469 202.271 111.328C200.806 112.188 198.772 112.66 196.171 112.746C193.783 112.824 191.479 112.217 189.259 110.924C187.038 109.588 185.484 107.761 184.596 105.442C183.661 102.954 183.078 98.2136 182.848 91.22C179.86 91.233 177.438 90.9284 175.582 90.3064C173.767 89.6404 172.829 88.3906 172.769 86.5569C172.693 84.2541 173.496 82.6909 175.176 81.8672C176.855 81.0009 179.293 80.4938 182.49 80.3459C182.506 76.9302 182.946 74.0769 183.809 71.7859C184.672 69.4523 186.318 68.2455 188.749 68.1656C191.222 68.0842 192.857 69.0977 193.652 71.206C194.489 73.313 194.927 76.2228 194.963 79.9356C198.843 79.7653 201.71 79.9698 203.564 80.5492C205.462 81.1271 206.446 82.5035 206.518 84.6783Z" fill="#8FCD68"/>
<path d="M249.728 136.532C246.999 136.622 245.113 135.083 244.069 131.916C243.069 128.747 242.476 124.348 242.29 118.719C242.206 116.16 242.243 114.025 242.4 112.312C242.598 110.555 243.126 109.065 243.982 107.842C244.879 106.574 246.287 105.909 248.206 105.846C249.4 105.806 250.454 106.049 251.368 106.574C252.325 107.097 252.947 107.867 253.237 108.882C254.147 107.998 255.341 107.318 256.82 106.843C258.298 106.367 259.89 106.102 261.596 106.045C262.961 106.001 264.358 106.296 265.787 106.932C267.26 107.567 268.484 108.466 269.462 109.629C270.481 110.748 271.012 111.99 271.057 113.354C271.102 114.719 270.652 115.95 269.706 117.049C268.802 118.103 267.561 118.656 265.983 118.708C265.471 118.725 264.979 118.677 264.505 118.565C264.075 118.451 263.687 118.335 263.341 118.219C262.477 117.906 261.789 117.757 261.278 117.774C259.615 117.829 258.165 118.538 256.929 119.902C255.735 121.222 255.171 122.906 255.238 124.953C255.313 127.213 255.289 129.092 255.168 130.59C255.046 132.088 254.579 133.448 253.765 134.67C252.95 135.85 251.605 136.47 249.728 136.532Z" fill="#FC7930"/>
<path d="M280.695 129.56C278.392 129.636 276.458 129.251 274.894 128.406C273.329 127.561 272.518 126.264 272.461 124.516C272.414 123.109 273.039 121.978 274.334 121.124C275.629 120.271 277.174 119.857 278.968 119.883C280.847 119.907 282.294 119.774 283.309 119.484C284.367 119.193 285.161 118.698 285.693 117.997C281.77 118.126 278.618 117.675 276.236 116.643C273.853 115.569 272.089 113.856 270.944 111.503C269.84 109.106 269.224 105.924 269.093 101.958C268.981 98.5468 269.402 95.7795 270.357 93.6563C271.353 91.489 272.981 90.3682 275.241 90.2939C277.245 90.228 278.735 90.7553 279.711 91.8758C280.729 92.9522 281.267 94.386 281.326 96.177L281.354 98.9936C281.33 99.5494 281.335 100.36 281.37 101.426C281.438 103.473 281.745 105.021 282.291 106.071C282.837 107.077 283.877 107.555 285.412 107.505C286.947 107.454 287.954 106.909 288.432 105.869C288.909 104.786 289.114 103.242 289.048 101.238C289.013 100.172 288.965 99.3622 288.904 98.8093L288.75 96.0609C288.687 94.1419 289.106 92.6126 290.008 91.473C290.952 90.332 292.426 89.7286 294.431 89.6626C296.691 89.5883 298.389 90.5997 299.525 92.6968C300.661 94.7939 301.285 97.5269 301.396 100.896C301.561 105.928 300.988 110.578 299.677 114.848C298.408 119.073 296.195 122.54 293.04 125.248C289.927 127.954 285.812 129.391 280.695 129.56Z" fill="#FC7930"/>
<path d="M66.1107 80.6523C66.2131 83.7653 65.8345 86.5313 64.9748 88.9502C64.1579 91.3677 62.9445 93.414 61.3347 95.0892C62.8135 97.2177 63.5866 99.3054 63.6539 101.352C63.7114 103.101 63.0768 104.573 61.7501 105.769C60.466 106.964 58.9711 107.59 57.2653 107.646C56.2845 107.678 55.3841 107.558 54.5641 107.286C53.744 107.015 52.853 106.532 51.891 105.837C51.0597 105.224 50.2634 104.376 49.502 103.291C48.7405 102.206 48.127 101.073 47.6613 99.8933C46.2484 99.769 44.8293 99.4529 43.4038 98.9448C43.7045 100.301 43.8668 101.342 43.8907 102.066C44.0239 106.118 41.9797 108.213 37.758 108.351C34.2186 108.468 31.6559 106.482 30.0699 102.393C28.484 98.3043 27.5928 93.2749 27.3964 87.3048C27.2632 83.2536 27.8633 79.4345 29.1967 75.8474C30.5714 72.2162 32.7368 69.2634 35.693 66.989C38.6477 64.672 42.2999 63.4419 46.6496 63.2988C50.1464 63.1838 53.3479 63.8255 56.2541 65.2241C59.1589 66.58 61.4877 68.5952 63.2406 71.2696C65.0361 73.9427 65.9928 77.0703 66.1107 80.6523ZM42.2865 84.4457C42.3342 85.8956 42.952 87.1559 44.1398 88.2268C45.3262 89.255 46.6657 89.7446 48.1583 89.6955C49.6934 89.645 50.9978 89.0684 52.0715 87.9659C53.1864 86.8193 53.72 85.521 53.6723 84.0711C53.6232 82.5786 53.0055 81.3182 51.819 80.29C50.6738 79.2178 49.3336 78.7069 47.7984 78.7574C46.3059 78.8065 45.0022 79.4043 43.8873 80.5509C42.7724 81.6975 42.2388 82.9958 42.2865 84.4457Z" stroke="white" stroke-width="6" mask="url(#path-5-outside-1_7_94)"/>
<path d="M82.6749 118.464C79.5192 118.568 76.7057 118.042 74.2344 116.885C71.763 115.728 69.8086 114.064 68.371 111.891C66.9747 109.674 66.2303 107.159 66.1377 104.344C66.0465 101.572 66.6233 98.9921 67.8681 96.6032C69.1556 94.2129 70.9702 92.2749 73.3119 90.7891C75.6537 89.3033 78.3384 88.5106 81.3661 88.411C84.0953 88.3212 86.5229 88.7963 88.6489 89.8363C90.7749 90.8763 92.4224 92.2949 93.5915 94.0921C94.7591 95.8467 95.3752 97.7048 95.4398 99.6664C95.545 102.865 94.4068 105.25 92.0252 106.822C89.6848 108.351 86.8515 109.17 83.5253 109.279C81.3079 109.352 79.4224 109.137 77.869 108.633C79.2171 110.68 81.3623 111.656 84.3047 111.559C85.4987 111.52 86.7731 111.328 88.1279 110.985C88.6354 110.84 89.1237 110.76 89.5928 110.745C90.531 110.714 91.2849 110.924 91.8547 111.375C92.4672 111.824 92.7867 112.454 92.8134 113.264C92.8569 114.586 92.0845 115.764 90.4963 116.798C88.9067 117.79 86.2996 118.345 82.6749 118.464ZM77.8042 100.823C78.2077 101.407 78.7341 101.838 79.3836 102.116C80.0743 102.349 80.8248 102.452 81.635 102.426C82.5732 102.395 83.3764 102.155 84.0446 101.706C84.7555 101.256 85.0998 100.69 85.0773 100.007C85.0521 99.2397 84.7105 98.5892 84.0526 98.0559C83.4374 97.5211 82.5541 97.2727 81.4027 97.3106C80.2513 97.3485 79.3464 97.7411 78.688 98.4885C78.0707 99.1918 77.7762 99.9699 77.8042 100.823Z" stroke="white" stroke-width="6" mask="url(#path-5-outside-1_7_94)"/>
<path d="M111.341 80.8294C115.523 80.7772 118.544 81.1261 120.404 81.876C122.307 82.6245 123.297 84.1501 123.372 86.4529C123.447 88.713 122.538 90.2797 120.645 91.1531C118.794 91.9824 115.866 92.5056 111.86 92.7227L112.091 97.7739C112.16 98.5827 112.218 99.7121 112.266 101.162C112.326 102.996 111.857 104.313 110.859 105.114C109.86 105.873 108.678 106.275 107.313 106.32C104.968 106.397 103.223 105.28 102.08 102.97C100.937 100.66 100.166 97.3337 99.7667 92.9925C96.9878 92.8705 94.9021 92.4055 93.5094 91.5975C92.1594 90.7881 91.4529 89.4239 91.3897 87.5049C91.3266 85.586 91.942 84.1783 93.2359 83.282C94.571 82.3416 96.6203 81.6978 99.3837 81.3508C99.5035 77.206 100.008 73.7102 100.896 70.8634C101.784 68.0167 103.311 65.7679 105.476 64.1172C107.641 62.4238 110.599 61.5153 114.352 61.3919C116.697 61.3147 118.656 61.8053 120.227 62.8635C121.84 63.8777 122.68 65.4082 122.747 67.4551C122.818 69.5873 122.21 71.2295 120.924 72.3817C119.68 73.4899 117.935 74.2944 115.689 74.7952C114.206 75.1428 113.141 75.8395 112.492 76.8854C111.842 77.8887 111.458 79.2033 111.341 80.8294Z" stroke="white" stroke-width="6" mask="url(#path-5-outside-1_7_94)"/>
<path d="M131.963 117.739C128.636 117.849 125.883 117.192 123.701 115.77C121.519 114.305 120.38 112.144 120.286 109.287C120.205 106.813 121.228 104.816 123.355 103.295C125.482 101.773 128.166 100.959 131.407 100.852C132.601 100.813 133.713 100.883 134.744 101.063C135.815 101.198 136.547 101.388 136.94 101.631C136.905 100.565 136.428 99.7055 135.51 99.0526C134.591 98.3571 133.214 98.0396 131.381 98.0999C130.57 98.1265 129.911 98.2122 129.404 98.357C128.896 98.5018 128.348 98.7119 127.76 98.9874C127.171 99.2629 126.623 99.473 126.116 99.6178C125.651 99.7612 125.013 99.8462 124.203 99.8728C122.838 99.9177 121.761 99.6116 120.971 98.9546C120.18 98.2549 119.76 97.1801 119.712 95.7302C119.658 94.0671 120.208 92.6402 121.364 91.4496C122.563 90.2575 124.07 89.3541 125.886 88.7395C127.7 88.0821 129.524 87.7233 131.357 87.663C134.982 87.5438 138.032 88.1265 140.508 89.4111C143.025 90.6517 144.895 92.3618 146.12 94.5414C147.386 96.7196 148.064 99.1519 148.153 101.838C148.2 103.288 148.117 104.636 147.901 105.881C147.729 107.125 147.462 108.094 147.101 108.789C147.714 109.281 148.182 109.863 148.503 110.536C148.866 111.207 149.06 111.905 149.084 112.63C149.125 113.866 148.733 114.946 147.91 115.87C147.129 116.792 146.056 117.276 144.692 117.321C143.668 117.354 142.832 117.232 142.182 116.955C141.533 116.677 140.835 116.231 140.089 115.615C139.044 116.29 137.887 116.797 136.617 117.138C135.39 117.477 133.839 117.678 131.963 117.739ZM133.029 111.237C133.925 111.207 134.622 110.992 135.121 110.592C135.663 110.19 135.925 109.711 135.907 109.157C135.888 108.603 135.596 108.143 135.029 107.777C134.504 107.41 133.794 107.241 132.899 107.271C132.003 107.3 131.285 107.516 130.743 107.918C130.244 108.319 130.003 108.796 130.022 109.351C130.04 109.905 130.311 110.366 130.836 110.733C131.403 111.098 132.134 111.266 133.029 111.237Z" stroke="white" stroke-width="6" mask="url(#path-5-outside-1_7_94)"/>
<path d="M168.313 126.277C165.583 126.367 162.982 125.791 160.508 124.549C158.075 123.263 156.095 121.492 154.57 119.237C153.044 116.982 152.234 114.426 152.14 111.569C152.042 108.584 152.66 105.959 153.994 103.695C155.37 101.388 157.211 99.5981 159.517 98.327C161.866 97.0544 164.405 96.3732 167.134 96.2834C169.735 96.1979 172.097 96.6324 174.221 97.5871C176.344 98.5418 178.008 99.8318 179.214 101.457C180.419 103.04 181.051 104.726 181.11 106.517C181.159 108.01 180.728 109.177 179.816 110.018C178.947 110.858 177.617 111.307 175.826 111.366C174.888 111.397 174.158 111.25 173.635 110.926C173.112 110.601 172.562 110.107 171.985 109.443C171.452 108.82 170.947 108.367 170.468 108.084C170.03 107.757 169.406 107.607 168.596 107.633C167.444 107.671 166.477 108.109 165.693 108.946C164.908 109.74 164.536 110.755 164.577 111.992C164.619 113.271 165.037 114.282 165.829 115.024C166.665 115.765 167.68 116.116 168.874 116.077C169.641 116.052 170.235 115.925 170.654 115.698C171.074 115.471 171.531 115.114 172.028 114.628C172.608 114.097 173.15 113.716 173.655 113.486C174.158 113.214 174.9 113.061 175.881 113.029C177.63 112.971 178.988 113.396 179.957 114.304C180.926 115.211 181.431 116.283 181.472 117.52C181.519 118.969 180.989 120.353 179.879 121.67C178.813 122.986 177.269 124.061 175.247 124.896C173.225 125.731 170.914 126.191 168.313 126.277Z" stroke="white" stroke-width="6" mask="url(#path-5-outside-1_7_94)"/>
<path d="M206.518 84.6783C206.591 86.8958 205.596 88.444 203.533 89.323C201.468 90.1593 198.625 90.6584 195.001 90.8203C194.994 91.8877 195.029 93.6155 195.108 96.0036C195.188 98.4342 195.415 100.156 195.79 101.168C196.027 101.886 196.362 102.344 196.796 102.544C197.272 102.741 197.959 102.868 198.857 102.924C199.157 102.957 199.479 103.01 199.823 103.084C200.208 103.114 200.637 103.164 201.109 103.234C202.097 103.415 202.882 103.923 203.464 104.758C204.045 105.55 204.357 106.585 204.399 107.865C204.446 109.314 203.737 110.469 202.271 111.328C200.806 112.188 198.772 112.66 196.171 112.746C193.783 112.824 191.479 112.217 189.259 110.924C187.038 109.588 185.484 107.761 184.596 105.442C183.661 102.954 183.078 98.2136 182.848 91.22C179.86 91.233 177.438 90.9284 175.582 90.3064C173.767 89.6404 172.829 88.3906 172.769 86.5569C172.693 84.2541 173.496 82.6909 175.176 81.8672C176.855 81.0009 179.293 80.4938 182.49 80.3459C182.506 76.9302 182.946 74.0769 183.809 71.7859C184.672 69.4523 186.318 68.2455 188.749 68.1656C191.222 68.0842 192.857 69.0977 193.652 71.206C194.489 73.313 194.927 76.2228 194.963 79.9356C198.843 79.7653 201.71 79.9698 203.564 80.5492C205.462 81.1271 206.446 82.5035 206.518 84.6783Z" stroke="white" stroke-width="6" mask="url(#path-5-outside-1_7_94)"/>
<path d="M249.728 136.532C246.999 136.622 245.113 135.083 244.069 131.916C243.069 128.747 242.476 124.348 242.29 118.719C242.206 116.16 242.243 114.025 242.4 112.312C242.598 110.555 243.126 109.065 243.982 107.842C244.879 106.574 246.287 105.909 248.206 105.846C249.4 105.806 250.454 106.049 251.368 106.574C252.325 107.097 252.947 107.867 253.237 108.882C254.147 107.998 255.341 107.318 256.82 106.843C258.298 106.367 259.89 106.102 261.596 106.045C262.961 106.001 264.358 106.296 265.787 106.932C267.26 107.567 268.484 108.466 269.462 109.629C270.481 110.748 271.012 111.99 271.057 113.354C271.102 114.719 270.652 115.95 269.706 117.049C268.802 118.103 267.561 118.656 265.983 118.708C265.471 118.725 264.979 118.677 264.505 118.565C264.075 118.451 263.687 118.335 263.341 118.219C262.477 117.906 261.789 117.757 261.278 117.774C259.615 117.829 258.165 118.538 256.929 119.902C255.735 121.222 255.171 122.906 255.238 124.953C255.313 127.213 255.289 129.092 255.168 130.59C255.046 132.088 254.579 133.448 253.765 134.67C252.95 135.85 251.605 136.47 249.728 136.532Z" stroke="white" stroke-width="6" mask="url(#path-5-outside-1_7_94)"/>
<path d="M280.695 129.56C278.392 129.636 276.458 129.251 274.894 128.406C273.329 127.561 272.518 126.264 272.461 124.516C272.414 123.109 273.039 121.978 274.334 121.124C275.629 120.271 277.174 119.857 278.968 119.883C280.847 119.907 282.294 119.774 283.309 119.484C284.367 119.193 285.161 118.698 285.693 117.997C281.77 118.126 278.618 117.675 276.236 116.643C273.853 115.569 272.089 113.856 270.944 111.503C269.84 109.106 269.224 105.924 269.093 101.958C268.981 98.5468 269.402 95.7795 270.357 93.6563C271.353 91.489 272.981 90.3682 275.241 90.2939C277.245 90.228 278.735 90.7553 279.711 91.8758C280.729 92.9522 281.267 94.386 281.326 96.177L281.354 98.9936C281.33 99.5494 281.335 100.36 281.37 101.426C281.438 103.473 281.745 105.021 282.291 106.071C282.837 107.077 283.877 107.555 285.412 107.505C286.947 107.454 287.954 106.909 288.432 105.869C288.909 104.786 289.114 103.242 289.048 101.238C289.013 100.172 288.965 99.3622 288.904 98.8093L288.75 96.0609C288.687 94.1419 289.106 92.6126 290.008 91.473C290.952 90.332 292.426 89.7286 294.431 89.6626C296.691 89.5883 298.389 90.5997 299.525 92.6968C300.661 94.7939 301.285 97.5269 301.396 100.896C301.561 105.928 300.988 110.578 299.677 114.848C298.408 119.073 296.195 122.54 293.04 125.248C289.927 127.954 285.812 129.391 280.695 129.56Z" stroke="white" stroke-width="6" mask="url(#path-5-outside-1_7_94)"/>
</svg>
